<?xml version="1.0" standalone="no"?>
<!DOCTYPE svg PUBLIC "-//W3C//DTD SVG 20010904//EN"
 "http://www.w3.org/TR/2001/REC-SVG-20010904/DTD/svg10.dtd">
<svg version="1.0" xmlns="http://www.w3.org/2000/svg"
 width="300.000000pt" height="300.000000pt" viewBox="0 0 300.000000 300.000000"
 preserveAspectRatio="xMidYMid meet">
<metadata>
Created by potrace 1.10, written by Peter Selinger 2001-2011
</metadata>
<g transform="translate(0.000000,300.000000) scale(0.100000,-0.100000)"
fill="#000000" stroke="none">
<path d="M1146 2591 c-16 -17 -17 -42 -14 -258 3 -219 5 -242 26 -291 31 -74
86 -153 177 -251 83 -90 105 -129 105 -188 -1 -57 -29 -109 -112 -203 -98
-111 -154 -199 -179 -280 -17 -58 -19 -89 -17 -285 l3 -219 25 -13 c19 -9 107
-13 345 -13 279 0 324 2 344 16 l23 16 -4 237 c-3 213 -6 241 -25 289 -30 74
-71 135 -164 243 -92 106 -118 155 -119 217 0 58 17 87 106 185 82 88 149 185
180 257 16 39 19 78 22 278 3 201 1 236 -12 258 l-16 24 -339 0 c-320 0 -339
-1 -355 -19z m692 -13 c19 -19 16 -391 -4 -478 -8 -38 -21 -73 -27 -78 -10 -9
-361 -38 -532 -45 l-59 -2 -18 38 c-40 82 -48 144 -48 352 0 143 3 204 12 213
17 17 659 17 676 0z m-48 -595 c0 -12 -85 -119 -151 -189 -83 -87 -99 -118
-99 -186 1 -71 24 -118 104 -208 90 -101 151 -192 178 -265 20 -54 23 -83 26
-282 4 -223 -1 -257 -28 -193 -17 40 -135 149 -232 213 l-78 52 0 393 c0 269
-3 393 -10 390 -7 -2 -11 -130 -10 -393 l0 -390 -78 -52 c-97 -64 -215 -173
-232 -213 -7 -16 -16 -30 -21 -30 -5 0 -9 91 -9 203 0 293 20 350 184 542 103
119 126 163 126 234 0 66 -17 98 -99 185 -36 39 -81 90 -99 113 l-32 41 52 6
c65 7 419 33 471 35 20 0 37 -2 37 -6z m-208 -1132 c117 -79 238 -198 238
-235 0 -3 -144 -6 -320 -6 -176 0 -320 2 -320 5 0 39 124 162 238 236 41 27
78 49 82 49 5 0 41 -22 82 -49z"/>
</g>
</svg>
